<?xml version="1.0" encoding="UTF-8" standalone="no"?>
<!DOCTYPE svg PUBLIC "-//W3C//DTD SVG 1.1//EN"
 "http://www.w3.org/Graphics/SVG/1.1/DTD/svg11.dtd">
<!-- Generated by graphviz version 15.1.1 (20260805.0921)
 -->
<!-- Title: UseEffects Pages: 1 -->
<svg width="612pt" height="1934pt"
 viewBox="0.00 0.00 612.00 1934.00" xmlns="http://www.w3.org/2000/svg" xmlns:xlink="http://www.w3.org/1999/xlink">
<g id="graph0" class="graph" transform="scale(1 1) rotate(0) translate(36 1898)">
<title>UseEffects</title>
<polygon fill="#f5f7fb" stroke="none" points="-36,36 -36,-1898 576.29,-1898 576.29,36 -36,36"/>
<g id="clust1" class="cluster">
<title>cluster_0</title>
<path fill="white" stroke="#dce3ee" d="M20,-8C20,-8 311.24,-8 311.24,-8 317.24,-8 323.24,-14 323.24,-20 323.24,-20 323.24,-537 323.24,-537 323.24,-543 317.24,-549 311.24,-549 311.24,-549 20,-549 20,-549 14,-549 8,-543 8,-537 8,-537 8,-20 8,-20 8,-14 14,-8 20,-8"/>
<text xml:space="preserve" text-anchor="middle" x="77.12" y="-527.9" font-family="Segoe UI" font-size="18.00" fill="#17233c">ActivityFeed.tsx</text>
</g>
<g id="clust2" class="cluster">
<title>cluster_1</title>
<path fill="white" stroke="#dce3ee" d="M20,-557C20,-557 508.29,-557 508.29,-557 514.29,-557 520.29,-563 520.29,-569 520.29,-569 520.29,-926 520.29,-926 520.29,-932 514.29,-938 508.29,-938 508.29,-938 20,-938 20,-938 14,-938 8,-932 8,-926 8,-926 8,-569 8,-569 8,-563 14,-557 20,-557"/>
<text xml:space="preserve" text-anchor="middle" x="44.88" y="-916.9" font-family="Segoe UI" font-size="18.00" fill="#17233c">App.tsx</text>
</g>
<g id="clust3" class="cluster">
<title>cluster_2</title>
<path fill="white" stroke="#dce3ee" d="M20,-946C20,-946 287.61,-946 287.61,-946 293.61,-946 299.61,-952 299.61,-958 299.61,-958 299.61,-1075 299.61,-1075 299.61,-1081 293.61,-1087 287.61,-1087 287.61,-1087 20,-1087 20,-1087 14,-1087 8,-1081 8,-1075 8,-1075 8,-958 8,-958 8,-952 14,-946 20,-946"/>
<text xml:space="preserve" text-anchor="middle" x="82.75" y="-1065.9" font-family="Segoe UI" font-size="18.00" fill="#17233c">SettingsPanel.tsx</text>
</g>
<g id="clust4" class="cluster">
<title>cluster_3</title>
<path fill="white" stroke="#dce3ee" d="M20,-1095C20,-1095 283.49,-1095 283.49,-1095 289.49,-1095 295.49,-1101 295.49,-1107 295.49,-1107 295.49,-1304 295.49,-1304 295.49,-1310 289.49,-1316 283.49,-1316 283.49,-1316 20,-1316 20,-1316 14,-1316 8,-1310 8,-1304 8,-1304 8,-1107 8,-1107 8,-1101 14,-1095 20,-1095"/>
<text xml:space="preserve" text-anchor="middle" x="106.75" y="-1294.9" font-family="Segoe UI" font-size="18.00" fill="#17233c">useDebouncedValue.ts</text>
</g>
<g id="clust5" class="cluster">
<title>cluster_4</title>
<path fill="white" stroke="#dce3ee" d="M20,-1324C20,-1324 283.11,-1324 283.11,-1324 289.11,-1324 295.11,-1330 295.11,-1336 295.11,-1336 295.11,-1533 295.11,-1533 295.11,-1539 289.11,-1545 283.11,-1545 283.11,-1545 20,-1545 20,-1545 14,-1545 8,-1539 8,-1533 8,-1533 8,-1336 8,-1336 8,-1330 14,-1324 20,-1324"/>
<text xml:space="preserve" text-anchor="middle" x="97" y="-1523.9" font-family="Segoe UI" font-size="18.00" fill="#17233c">usePersistentState.ts</text>
</g>
<g id="clust6" class="cluster">
<title>cluster_5</title>
<path fill="white" stroke="#dce3ee" d="M20,-1553C20,-1553 520.29,-1553 520.29,-1553 526.29,-1553 532.29,-1559 532.29,-1565 532.29,-1565 532.29,-1842 532.29,-1842 532.29,-1848 526.29,-1854 520.29,-1854 520.29,-1854 20,-1854 20,-1854 14,-1854 8,-1848 8,-1842 8,-1842 8,-1565 8,-1565 8,-1559 14,-1553 20,-1553"/>
<text xml:space="preserve" text-anchor="middle" x="50.12" y="-1832.9" font-family="Segoe UI" font-size="18.00" fill="#17233c">Users.tsx</text>
</g>
<!-- &#45;16534076 -->
<g id="node1" class="node">
<title>&#45;16534076</title>
<g id="a_node1"><a xlink:href="file://E:/study/use-effect-graph/src/components/ActivityFeed.tsx:13:3:13:6" xlink:title="ActivityFeed.tsx:13">
<path fill="#f0f5ff" stroke="#c8d8f3" stroke-width="1.2" d="M258.36,-171.83C258.36,-171.83 217.43,-171.83 217.43,-171.83 211.43,-171.83 205.43,-165.83 205.43,-159.83 205.43,-159.83 205.43,-124.17 205.43,-124.17 205.43,-118.17 211.43,-112.17 217.43,-112.17 217.43,-112.17 258.36,-112.17 258.36,-112.17 264.36,-112.17 270.36,-118.17 270.36,-124.17 270.36,-124.17 270.36,-159.83 270.36,-159.83 270.36,-165.83 264.36,-171.83 258.36,-171.83"/>
<text xml:space="preserve" text-anchor="start" x="223.27" y="-149.35" font-family="Segoe UI" font-weight="bold" font-size="12.00" fill="#254b82">user</text>
<text xml:space="preserve" text-anchor="start" x="223.27" y="-127.25" font-family="Segoe UI" font-size="10.00" fill="#738199">line 13</text>
</a>
</g>
</g>
<!-- &#45;16534073 -->
<g id="node2" class="node">
<title>&#45;16534073</title>
<g id="a_node2"><a xlink:href="file://E:/study/use-effect-graph/src/components/ActivityFeed.tsx:14:3:14:13" xlink:title="ActivityFeed.tsx:14">
<path fill="#f0f5ff" stroke="#c8d8f3" stroke-width="1.2" d="M278.24,-411.83C278.24,-411.83 197.55,-411.83 197.55,-411.83 191.55,-411.83 185.55,-405.83 185.55,-399.83 185.55,-399.83 185.55,-364.17 185.55,-364.17 185.55,-358.17 191.55,-352.17 197.55,-352.17 197.55,-352.17 278.24,-352.17 278.24,-352.17 284.24,-352.17 290.24,-358.17 290.24,-364.17 290.24,-364.17 290.24,-399.83 290.24,-399.83 290.24,-405.83 284.24,-411.83 278.24,-411.83"/>
<text xml:space="preserve" text-anchor="start" x="203.39" y="-389.35" font-family="Segoe UI" font-weight="bold" font-size="12.00" fill="#254b82">autoRefresh</text>
<text xml:space="preserve" text-anchor="start" x="203.39" y="-367.25" font-family="Segoe UI" font-size="10.00" fill="#738199">line 14</text>
</a>
</g>
</g>
<!-- &#45;16534070 -->
<g id="node3" class="node">
<title>&#45;16534070</title>
<g id="a_node3"><a xlink:href="file://E:/study/use-effect-graph/src/components/ActivityFeed.tsx:15:3:15:16" xlink:title="ActivityFeed.tsx:15">
<path fill="#f0f5ff" stroke="#c8d8f3" stroke-width="1.2" d="M287.24,-491.83C287.24,-491.83 188.56,-491.83 188.56,-491.83 182.55,-491.83 176.55,-485.83 176.55,-479.83 176.55,-479.83 176.55,-444.17 176.55,-444.17 176.55,-438.17 182.55,-432.17 188.55,-432.17 188.55,-432.17 287.24,-432.17 287.24,-432.17 293.24,-432.17 299.24,-438.17 299.24,-444.17 299.24,-444.17 299.24,-479.83 299.24,-479.83 299.24,-485.83 293.24,-491.83 287.24,-491.83"/>
<text xml:space="preserve" text-anchor="start" x="194.39" y="-469.35" font-family="Segoe UI" font-weight="bold" font-size="12.00" fill="#254b82">refreshSeconds</text>
<text xml:space="preserve" text-anchor="start" x="194.39" y="-447.25" font-family="Segoe UI" font-size="10.00" fill="#738199">line 15</text>
</a>
</g>
</g>
<!-- &#45;16534063 -->
<g id="node4" class="node">
<title>&#45;16534063</title>
<g id="a_node4"><a xlink:href="file://E:/study/use-effect-graph/src/components/ActivityFeed.tsx:17:10:17:17" xlink:title="ActivityFeed.tsx:17">
<path fill="#f0f5ff" stroke="#c8d8f3" stroke-width="1.2" d="M265.11,-251.83C265.11,-251.83 210.68,-251.83 210.68,-251.83 204.68,-251.83 198.68,-245.83 198.68,-239.83 198.68,-239.83 198.68,-204.17 198.68,-204.17 198.68,-198.17 204.68,-192.17 210.68,-192.17 210.68,-192.17 265.11,-192.17 265.11,-192.17 271.11,-192.17 277.11,-198.17 277.11,-204.17 277.11,-204.17 277.11,-239.83 277.11,-239.83 277.11,-245.83 271.11,-251.83 265.11,-251.83"/>
<text xml:space="preserve" text-anchor="start" x="216.52" y="-229.35" font-family="Segoe UI" font-weight="bold" font-size="12.00" fill="#254b82">activity</text>
<text xml:space="preserve" text-anchor="start" x="216.52" y="-207.25" font-family="Segoe UI" font-size="10.00" fill="#738199">line 17</text>
</a>
</g>
</g>
<!-- &#45;16534043 -->
<g id="node5" class="node">
<title>&#45;16534043</title>
<g id="a_node5"><a xlink:href="file://E:/study/use-effect-graph/src/components/ActivityFeed.tsx:19:10:19:13" xlink:title="ActivityFeed.tsx:19">
<path fill="#f0f5ff" stroke="#c8d8f3" stroke-width="1.2" d="M258.36,-331.83C258.36,-331.83 217.43,-331.83 217.43,-331.83 211.43,-331.83 205.43,-325.83 205.43,-319.83 205.43,-319.83 205.43,-284.17 205.43,-284.17 205.43,-278.17 211.43,-272.17 217.43,-272.17 217.43,-272.17 258.36,-272.17 258.36,-272.17 264.36,-272.17 270.36,-278.17 270.36,-284.17 270.36,-284.17 270.36,-319.83 270.36,-319.83 270.36,-325.83 264.36,-331.83 258.36,-331.83"/>
<text xml:space="preserve" text-anchor="start" x="223.27" y="-309.35" font-family="Segoe UI" font-weight="bold" font-size="12.00" fill="#254b82">kind</text>
<text xml:space="preserve" text-anchor="start" x="223.27" y="-287.25" font-family="Segoe UI" font-size="10.00" fill="#738199">line 19</text>
</a>
</g>
</g>
<!-- &#45;16534031 -->
<g id="node6" class="node">
<title>&#45;16534031</title>
<g id="a_node6"><a xlink:href="file://E:/study/use-effect-graph/src/components/ActivityFeed.tsx:20:10:20:23" xlink:title="ActivityFeed.tsx:20">
<path fill="#f0f5ff" stroke="#c8d8f3" stroke-width="1.2" d="M284.99,-91.83C284.99,-91.83 190.8,-91.83 190.8,-91.83 184.8,-91.83 178.8,-85.83 178.8,-79.83 178.8,-79.83 178.8,-44.17 178.8,-44.17 178.8,-38.17 184.8,-32.17 190.8,-32.17 190.8,-32.17 284.99,-32.17 284.99,-32.17 290.99,-32.17 296.99,-38.17 296.99,-44.17 296.99,-44.17 296.99,-79.83 296.99,-79.83 296.99,-85.83 290.99,-91.83 284.99,-91.83"/>
<text xml:space="preserve" text-anchor="start" x="196.64" y="-69.35" font-family="Segoe UI" font-weight="bold" font-size="12.00" fill="#254b82">refreshVersion</text>
<text xml:space="preserve" text-anchor="start" x="196.64" y="-47.25" font-family="Segoe UI" font-size="10.00" fill="#738199">line 20</text>
</a>
</g>
</g>
<!-- &#45;16534006 -->
<g id="node7" class="node">
<title>&#45;16534006</title>
<g id="a_node7"><a xlink:href="file://E:/study/use-effect-graph/src/components/ActivityFeed.tsx:24:3:28:16" xlink:title="ActivityFeed.tsx:24">
<path fill="#ede9fe" stroke="#c4b5fd" stroke-width="1.2" d="M108.18,-171.83C108.18,-171.83 44,-171.83 44,-171.83 38,-171.83 32,-165.83 32,-159.83 32,-159.83 32,-124.17 32,-124.17 32,-118.17 38,-112.17 44,-112.17 44,-112.17 108.18,-112.17 108.18,-112.17 114.18,-112.17 120.18,-118.17 120.18,-124.17 120.18,-124.17 120.18,-159.83 120.18,-159.83 120.18,-165.83 114.18,-171.83 108.18,-171.83"/>
<text xml:space="preserve" text-anchor="start" x="49.84" y="-149.35" font-family="Segoe UI" font-weight="bold" font-size="12.00" fill="#5b36a8">useEffect</text>
<text xml:space="preserve" text-anchor="start" x="49.84" y="-127.25" font-family="Segoe UI" font-size="10.00" fill="#738199">line 24</text>
</a>
</g>
</g>
<!-- &#45;16534006&#45;&gt;&#45;16534076 -->
<g id="edge6" class="edge">
<title>&#45;16534006&#45;&gt;&#45;16534076</title>
<path fill="none" stroke="#9aaac2" stroke-width="1.3" d="M120.76,-142C144.46,-142 173.56,-142 196.7,-142"/>
<polygon fill="#9aaac2" stroke="#9aaac2" stroke-width="1.3" points="196.47,-144.28 202.97,-142 196.47,-139.73 196.47,-144.28"/>
</g>
<!-- &#45;16533983 -->
<g id="node8" class="node">
<title>&#45;16533983</title>
<g id="a_node8"><a xlink:href="file://E:/study/use-effect-graph/src/components/ActivityFeed.tsx:30:3:51:28" xlink:title="ActivityFeed.tsx:30">
<path fill="#ede9fe" stroke="#c4b5fd" stroke-width="1.2" d="M108.18,-91.83C108.18,-91.83 44,-91.83 44,-91.83 38,-91.83 32,-85.83 32,-79.83 32,-79.83 32,-44.17 32,-44.17 32,-38.17 38,-32.17 44,-32.17 44,-32.17 108.18,-32.17 108.18,-32.17 114.18,-32.17 120.18,-38.17 120.18,-44.17 120.18,-44.17 120.18,-79.83 120.18,-79.83 120.18,-85.83 114.18,-91.83 108.18,-91.83"/>
<text xml:space="preserve" text-anchor="start" x="49.84" y="-69.35" font-family="Segoe UI" font-weight="bold" font-size="12.00" fill="#5b36a8">useEffect</text>
<text xml:space="preserve" text-anchor="start" x="49.84" y="-47.25" font-family="Segoe UI" font-size="10.00" fill="#738199">line 30</text>
</a>
</g>
</g>
<!-- &#45;16533983&#45;&gt;&#45;16534076 -->
<g id="edge7" class="edge">
<title>&#45;16533983&#45;&gt;&#45;16534076</title>
<path fill="none" stroke="#9aaac2" stroke-width="1.3" d="M120.76,-83.86C144.77,-95.88 174.33,-110.68 197.62,-122.34"/>
<polygon fill="#9aaac2" stroke="#9aaac2" stroke-width="1.3" points="196.35,-124.25 203.18,-125.12 198.39,-120.18 196.35,-124.25"/>
</g>
<!-- &#45;16533983&#45;&gt;&#45;16534031 -->
<g id="edge8" class="edge">
<title>&#45;16533983&#45;&gt;&#45;16534031</title>
<path fill="none" stroke="#9aaac2" stroke-width="1.3" d="M120.76,-62C136.01,-62 153.49,-62 170.18,-62"/>
<polygon fill="#9aaac2" stroke="#9aaac2" stroke-width="1.3" points="169.83,-64.28 176.33,-62 169.83,-59.73 169.83,-64.28"/>
</g>
<!-- &#45;16533885 -->
<g id="node9" class="node">
<title>&#45;16533885</title>
<g id="a_node9"><a xlink:href="file://E:/study/use-effect-graph/src/components/ActivityFeed.tsx:53:3:57:22" xlink:title="ActivityFeed.tsx:53">
<path fill="#ede9fe" stroke="#c4b5fd" stroke-width="1.2" d="M108.18,-291.83C108.18,-291.83 44,-291.83 44,-291.83 38,-291.83 32,-285.83 32,-279.83 32,-279.83 32,-244.17 32,-244.17 32,-238.17 38,-232.17 44,-232.17 44,-232.17 108.18,-232.17 108.18,-232.17 114.18,-232.17 120.18,-238.17 120.18,-244.17 120.18,-244.17 120.18,-279.83 120.18,-279.83 120.18,-285.83 114.18,-291.83 108.18,-291.83"/>
<text xml:space="preserve" text-anchor="start" x="49.84" y="-269.35" font-family="Segoe UI" font-weight="bold" font-size="12.00" fill="#5b36a8">useEffect</text>
<text xml:space="preserve" text-anchor="start" x="49.84" y="-247.25" font-family="Segoe UI" font-size="10.00" fill="#738199">line 53</text>
</a>
</g>
</g>
<!-- &#45;16533885&#45;&gt;&#45;16534063 -->
<g id="edge9" class="edge">
<title>&#45;16533885&#45;&gt;&#45;16534063</title>
<path fill="none" stroke="#9aaac2" stroke-width="1.3" d="M120.76,-251.07C142.23,-245.7 168.12,-239.21 190.01,-233.74"/>
<polygon fill="#9aaac2" stroke="#9aaac2" stroke-width="1.3" points="190.52,-235.95 196.28,-232.17 189.42,-231.54 190.52,-235.95"/>
</g>
<!-- &#45;16533885&#45;&gt;&#45;16534043 -->
<g id="edge10" class="edge">
<title>&#45;16533885&#45;&gt;&#45;16534043</title>
<path fill="none" stroke="#9aaac2" stroke-width="1.3" d="M120.76,-272.93C144.57,-278.89 173.82,-286.21 197.01,-292.02"/>
<polygon fill="#9aaac2" stroke="#9aaac2" stroke-width="1.3" points="196.17,-294.15 203.03,-293.52 197.28,-289.74 196.17,-294.15"/>
</g>
<!-- &#45;16533856 -->
<g id="node10" class="node">
<title>&#45;16533856</title>
<g id="a_node10"><a xlink:href="file://E:/study/use-effect-graph/src/components/ActivityFeed.tsx:59:3:66:41" xlink:title="ActivityFeed.tsx:59">
<path fill="#ede9fe" stroke="#c4b5fd" stroke-width="1.2" d="M108.18,-411.83C108.18,-411.83 44,-411.83 44,-411.83 38,-411.83 32,-405.83 32,-399.83 32,-399.83 32,-364.17 32,-364.17 32,-358.17 38,-352.17 44,-352.17 44,-352.17 108.18,-352.17 108.18,-352.17 114.18,-352.17 120.18,-358.17 120.18,-364.17 120.18,-364.17 120.18,-399.83 120.18,-399.83 120.18,-405.83 114.18,-411.83 108.18,-411.83"/>
<text xml:space="preserve" text-anchor="start" x="49.84" y="-389.35" font-family="Segoe UI" font-weight="bold" font-size="12.00" fill="#5b36a8">useEffect</text>
<text xml:space="preserve" text-anchor="start" x="49.84" y="-367.25" font-family="Segoe UI" font-size="10.00" fill="#738199">line 59</text>
</a>
</g>
</g>
<!-- &#45;16533856&#45;&gt;&#45;16534076 -->
<g id="edge11" class="edge">
<title>&#45;16533856&#45;&gt;&#45;16534076</title>
<path fill="none" stroke="#9aaac2" stroke-width="1.3" d="M94.39,-351.6C102.56,-336.81 112.24,-318.66 120.18,-302 145.02,-249.83 132.4,-225.71 170.18,-182 177.78,-173.2 187.82,-165.8 197.79,-159.84"/>
<polygon fill="#9aaac2" stroke="#9aaac2" stroke-width="1.3" points="198.75,-161.91 203.29,-156.74 196.51,-157.95 198.75,-161.91"/>
</g>
<!-- &#45;16533856&#45;&gt;&#45;16534073 -->
<g id="edge12" class="edge">
<title>&#45;16533856&#45;&gt;&#45;16534073</title>
<path fill="none" stroke="#9aaac2" stroke-width="1.3" d="M120.76,-382C137.99,-382 158.07,-382 176.64,-382"/>
<polygon fill="#9aaac2" stroke="#9aaac2" stroke-width="1.3" points="176.58,-384.28 183.08,-382 176.58,-379.73 176.58,-384.28"/>
</g>
<!-- &#45;16533856&#45;&gt;&#45;16534070 -->
<g id="edge13" class="edge">
<title>&#45;16533856&#45;&gt;&#45;16534070</title>
<path fill="none" stroke="#9aaac2" stroke-width="1.3" d="M120.76,-403.86C135.58,-411.28 152.52,-419.76 168.79,-427.91"/>
<polygon fill="#9aaac2" stroke="#9aaac2" stroke-width="1.3" points="167.62,-429.86 174.45,-430.74 169.66,-425.8 167.62,-429.86"/>
</g>
<!-- &#45;16535496 -->
<g id="node11" class="node">
<title>&#45;16535496</title>
<g id="a_node11"><a xlink:href="file://E:/study/use-effect-graph/src/App.tsx:6:10:6:24" xlink:title="App.tsx:6">
<path fill="#e6f7f2" stroke="#99d6c5" stroke-width="1.2" d="M484.29,-880.83C484.29,-880.83 379.61,-880.83 379.61,-880.83 373.61,-880.83 367.61,-874.83 367.61,-868.83 367.61,-868.83 367.61,-833.17 367.61,-833.17 367.61,-827.17 373.61,-821.17 379.61,-821.17 379.61,-821.17 484.29,-821.17 484.29,-821.17 490.29,-821.17 496.29,-827.17 496.29,-833.17 496.29,-833.17 496.29,-868.83 496.29,-868.83 496.29,-874.83 490.29,-880.83 484.29,-880.83"/>
<text xml:space="preserve" text-anchor="start" x="385.45" y="-858.35" font-family="Segoe UI" font-weight="bold" font-size="12.00" fill="#176b57">useOnlineStatus</text>
<text xml:space="preserve" text-anchor="start" x="385.45" y="-836.25" font-family="Segoe UI" font-size="10.00" fill="#738199">line 6</text>
</a>
</g>
</g>
<!-- &#45;16535457 -->
<g id="node12" class="node">
<title>&#45;16535457</title>
<g id="a_node12"><a xlink:href="file://E:/study/use-effect-graph/src/App.tsx:12:10:12:14" xlink:title="App.tsx:12">
<path fill="#f0f5ff" stroke="#c8d8f3" stroke-width="1.2" d="M260.61,-720.83C260.61,-720.83 215.18,-720.83 215.18,-720.83 209.18,-720.83 203.18,-714.83 203.18,-708.83 203.18,-708.83 203.18,-673.17 203.18,-673.17 203.18,-667.17 209.18,-661.17 215.18,-661.17 215.18,-661.17 260.61,-661.17 260.61,-661.17 266.61,-661.17 272.61,-667.17 272.61,-673.17 272.61,-673.17 272.61,-708.83 272.61,-708.83 272.61,-714.83 266.61,-720.83 260.61,-720.83"/>
<text xml:space="preserve" text-anchor="start" x="221.02" y="-698.35" font-family="Segoe UI" font-weight="bold" font-size="12.00" fill="#254b82">query</text>
<text xml:space="preserve" text-anchor="start" x="221.02" y="-676.25" font-family="Segoe UI" font-size="10.00" fill="#738199">line 12</text>
</a>
</g>
</g>
<!-- &#45;16535436 -->
<g id="node13" class="node">
<title>&#45;16535436</title>
<g id="a_node13"><a xlink:href="file://E:/study/use-effect-graph/src/App.tsx:14:10:14:21" xlink:title="App.tsx:14">
<path fill="#f0f5ff" stroke="#c8d8f3" stroke-width="1.2" d="M280.11,-800.83C280.11,-800.83 195.68,-800.83 195.68,-800.83 189.68,-800.83 183.68,-794.83 183.68,-788.83 183.68,-788.83 183.68,-753.17 183.68,-753.17 183.68,-747.17 189.68,-741.17 195.68,-741.17 195.68,-741.17 280.11,-741.17 280.11,-741.17 286.11,-741.17 292.11,-747.17 292.11,-753.17 292.11,-753.17 292.11,-788.83 292.11,-788.83 292.11,-794.83 286.11,-800.83 280.11,-800.83"/>
<text xml:space="preserve" text-anchor="start" x="201.52" y="-778.35" font-family="Segoe UI" font-weight="bold" font-size="12.00" fill="#254b82">selectedUser</text>
<text xml:space="preserve" text-anchor="start" x="201.52" y="-756.25" font-family="Segoe UI" font-size="10.00" fill="#738199">line 14</text>
</a>
</g>
</g>
<!-- &#45;16535415 -->
<g id="node14" class="node">
<title>&#45;16535415</title>
<g id="a_node14"><a xlink:href="file://E:/study/use-effect-graph/src/App.tsx:16:10:16:14" xlink:title="App.tsx:16">
<path fill="#f0f5ff" stroke="#c8d8f3" stroke-width="1.2" d="M262.11,-640.83C262.11,-640.83 213.68,-640.83 213.68,-640.83 207.68,-640.83 201.68,-634.83 201.68,-628.83 201.68,-628.83 201.68,-593.17 201.68,-593.17 201.68,-587.17 207.68,-581.17 213.68,-581.17 213.68,-581.17 262.11,-581.17 262.11,-581.17 268.11,-581.17 274.11,-587.17 274.11,-593.17 274.11,-593.17 274.11,-628.83 274.11,-628.83 274.11,-634.83 268.11,-640.83 262.11,-640.83"/>
<text xml:space="preserve" text-anchor="start" x="219.52" y="-618.35" font-family="Segoe UI" font-weight="bold" font-size="12.00" fill="#254b82">theme</text>
<text xml:space="preserve" text-anchor="start" x="219.52" y="-596.25" font-family="Segoe UI" font-size="10.00" fill="#738199">line 16</text>
</a>
</g>
</g>
<!-- &#45;16535384 -->
<g id="node15" class="node">
<title>&#45;16535384</title>
<g id="a_node15"><a xlink:href="file://E:/study/use-effect-graph/src/App.tsx:25:9:25:16" xlink:title="App.tsx:25">
<path fill="#f0f5ff" stroke="#c8d8f3" stroke-width="1.2" d="M267.36,-880.83C267.36,-880.83 208.43,-880.83 208.43,-880.83 202.43,-880.83 196.43,-874.83 196.43,-868.83 196.43,-868.83 196.43,-833.17 196.43,-833.17 196.43,-827.17 202.43,-821.17 208.43,-821.17 208.43,-821.17 267.36,-821.17 267.36,-821.17 273.36,-821.17 279.36,-827.17 279.36,-833.17 279.36,-833.17 279.36,-868.83 279.36,-868.83 279.36,-874.83 273.36,-880.83 267.36,-880.83"/>
<text xml:space="preserve" text-anchor="start" x="214.27" y="-858.35" font-family="Segoe UI" font-weight="bold" font-size="12.00" fill="#254b82">isOnline</text>
<text xml:space="preserve" text-anchor="start" x="214.27" y="-836.25" font-family="Segoe UI" font-size="10.00" fill="#738199">line 25</text>
</a>
</g>
</g>
<!-- &#45;16535384&#45;&gt;&#45;16535496 -->
<g id="edge1" class="edge">
<title>&#45;16535384&#45;&gt;&#45;16535496</title>
<path fill="none" stroke="#9aaac2" stroke-width="1.3" d="M279.62,-851C302.68,-851 332.17,-851 359,-851"/>
<polygon fill="#9aaac2" stroke="#9aaac2" stroke-width="1.3" points="358.76,-853.28 365.26,-851 358.76,-848.73 358.76,-853.28"/>
</g>
<!-- &#45;16535380 -->
<g id="node16" class="node">
<title>&#45;16535380</title>
<g id="a_node16"><a xlink:href="file://E:/study/use-effect-graph/src/App.tsx:27:3:29:13" xlink:title="App.tsx:27">
<path fill="#ede9fe" stroke="#c4b5fd" stroke-width="1.2" d="M108.18,-640.83C108.18,-640.83 44,-640.83 44,-640.83 38,-640.83 32,-634.83 32,-628.83 32,-628.83 32,-593.17 32,-593.17 32,-587.17 38,-581.17 44,-581.17 44,-581.17 108.18,-581.17 108.18,-581.17 114.18,-581.17 120.18,-587.17 120.18,-593.17 120.18,-593.17 120.18,-628.83 120.18,-628.83 120.18,-634.83 114.18,-640.83 108.18,-640.83"/>
<text xml:space="preserve" text-anchor="start" x="49.84" y="-618.35" font-family="Segoe UI" font-weight="bold" font-size="12.00" fill="#5b36a8">useEffect</text>
<text xml:space="preserve" text-anchor="start" x="49.84" y="-596.25" font-family="Segoe UI" font-size="10.00" fill="#738199">line 27</text>
</a>
</g>
</g>
<!-- &#45;16535380&#45;&gt;&#45;16535415 -->
<g id="edge2" class="edge">
<title>&#45;16535380&#45;&gt;&#45;16535415</title>
<path fill="none" stroke="#9aaac2" stroke-width="1.3" d="M120.76,-611C143.13,-611 170.31,-611 192.75,-611"/>
<polygon fill="#9aaac2" stroke="#9aaac2" stroke-width="1.3" points="192.63,-613.28 199.13,-611 192.63,-608.73 192.63,-613.28"/>
</g>
<!-- &#45;16535362 -->
<g id="node17" class="node">
<title>&#45;16535362</title>
<g id="a_node17"><a xlink:href="file://E:/study/use-effect-graph/src/App.tsx:31:3:34:27" xlink:title="App.tsx:31">
<path fill="#ede9fe" stroke="#c4b5fd" stroke-width="1.2" d="M108.18,-760.83C108.18,-760.83 44,-760.83 44,-760.83 38,-760.83 32,-754.83 32,-748.83 32,-748.83 32,-713.17 32,-713.17 32,-707.17 38,-701.17 44,-701.17 44,-701.17 108.18,-701.17 108.18,-701.17 114.18,-701.17 120.18,-707.17 120.18,-713.17 120.18,-713.17 120.18,-748.83 120.18,-748.83 120.18,-754.83 114.18,-760.83 108.18,-760.83"/>
<text xml:space="preserve" text-anchor="start" x="49.84" y="-738.35" font-family="Segoe UI" font-weight="bold" font-size="12.00" fill="#5b36a8">useEffect</text>
<text xml:space="preserve" text-anchor="start" x="49.84" y="-716.25" font-family="Segoe UI" font-size="10.00" fill="#738199">line 31</text>
</a>
</g>
</g>
<!-- &#45;16535362&#45;&gt;&#45;16535457 -->
<g id="edge3" class="edge">
<title>&#45;16535362&#45;&gt;&#45;16535457</title>
<path fill="none" stroke="#9aaac2" stroke-width="1.3" d="M120.76,-720.07C143.72,-714.32 171.75,-707.31 194.52,-701.61"/>
<polygon fill="#9aaac2" stroke="#9aaac2" stroke-width="1.3" points="194.99,-703.83 200.74,-700.05 193.88,-699.42 194.99,-703.83"/>
</g>
<!-- &#45;16535362&#45;&gt;&#45;16535436 -->
<g id="edge4" class="edge">
<title>&#45;16535362&#45;&gt;&#45;16535436</title>
<path fill="none" stroke="#9aaac2" stroke-width="1.3" d="M120.76,-741.93C137.66,-746.16 157.3,-751.08 175.57,-755.65"/>
<polygon fill="#9aaac2" stroke="#9aaac2" stroke-width="1.3" points="174.54,-757.74 181.4,-757.11 175.65,-753.32 174.54,-757.74"/>
</g>
<!-- &#45;16535328 -->
<g id="node18" class="node">
<title>&#45;16535328</title>
<g id="a_node18"><a xlink:href="file://E:/study/use-effect-graph/src/App.tsx:36:3:40:16" xlink:title="App.tsx:36">
<path fill="#ede9fe" stroke="#c4b5fd" stroke-width="1.2" d="M108.18,-880.83C108.18,-880.83 44,-880.83 44,-880.83 38,-880.83 32,-874.83 32,-868.83 32,-868.83 32,-833.17 32,-833.17 32,-827.17 38,-821.17 44,-821.17 44,-821.17 108.18,-821.17 108.18,-821.17 114.18,-821.17 120.18,-827.17 120.18,-833.17 120.18,-833.17 120.18,-868.83 120.18,-868.83 120.18,-874.83 114.18,-880.83 108.18,-880.83"/>
<text xml:space="preserve" text-anchor="start" x="49.84" y="-858.35" font-family="Segoe UI" font-weight="bold" font-size="12.00" fill="#5b36a8">useEffect</text>
<text xml:space="preserve" text-anchor="start" x="49.84" y="-836.25" font-family="Segoe UI" font-size="10.00" fill="#738199">line 36</text>
</a>
</g>
</g>
<!-- &#45;16535328&#45;&gt;&#45;16535384 -->
<g id="edge5" class="edge">
<title>&#45;16535328&#45;&gt;&#45;16535384</title>
<path fill="none" stroke="#9aaac2" stroke-width="1.3" d="M120.76,-851C141.48,-851 166.33,-851 187.71,-851"/>
<polygon fill="#9aaac2" stroke="#9aaac2" stroke-width="1.3" points="187.56,-853.28 194.06,-851 187.56,-848.73 187.56,-853.28"/>
</g>
<!-- &#45;16532541 -->
<g id="node19" class="node">
<title>&#45;16532541</title>
<g id="a_node19"><a xlink:href="file://E:/study/use-effect-graph/src/components/SettingsPanel.tsx:27:10:27:15" xlink:title="SettingsPanel.tsx:27">
<path fill="#f0f5ff" stroke="#c8d8f3" stroke-width="1.2" d="M263.61,-1029.83C263.61,-1029.83 212.18,-1029.83 212.18,-1029.83 206.18,-1029.83 200.18,-1023.83 200.18,-1017.83 200.18,-1017.83 200.18,-982.17 200.18,-982.17 200.18,-976.17 206.18,-970.17 212.18,-970.17 212.18,-970.17 263.61,-970.17 263.61,-970.17 269.61,-970.17 275.61,-976.17 275.61,-982.17 275.61,-982.17 275.61,-1017.83 275.61,-1017.83 275.61,-1023.83 269.61,-1029.83 263.61,-1029.83"/>
<text xml:space="preserve" text-anchor="start" x="218.02" y="-1007.35" font-family="Segoe UI" font-weight="bold" font-size="12.00" fill="#254b82">isOpen</text>
<text xml:space="preserve" text-anchor="start" x="218.02" y="-985.25" font-family="Segoe UI" font-size="10.00" fill="#738199">line 27</text>
</a>
</g>
</g>
<!-- &#45;16532535 -->
<g id="node20" class="node">
<title>&#45;16532535</title>
<g id="a_node20"><a xlink:href="file://E:/study/use-effect-graph/src/components/SettingsPanel.tsx:29:3:36:14" xlink:title="SettingsPanel.tsx:29">
<path fill="#ede9fe" stroke="#c4b5fd" stroke-width="1.2" d="M108.18,-1029.83C108.18,-1029.83 44,-1029.83 44,-1029.83 38,-1029.83 32,-1023.83 32,-1017.83 32,-1017.83 32,-982.17 32,-982.17 32,-976.17 38,-970.17 44,-970.17 44,-970.17 108.18,-970.17 108.18,-970.17 114.18,-970.17 120.18,-976.17 120.18,-982.17 120.18,-982.17 120.18,-1017.83 120.18,-1017.83 120.18,-1023.83 114.18,-1029.83 108.18,-1029.83"/>
<text xml:space="preserve" text-anchor="start" x="49.84" y="-1007.35" font-family="Segoe UI" font-weight="bold" font-size="12.00" fill="#5b36a8">useEffect</text>
<text xml:space="preserve" text-anchor="start" x="49.84" y="-985.25" font-family="Segoe UI" font-size="10.00" fill="#738199">line 29</text>
</a>
</g>
</g>
<!-- &#45;16532535&#45;&gt;&#45;16532541 -->
<g id="edge14" class="edge">
<title>&#45;16532535&#45;&gt;&#45;16532541</title>
<path fill="none" stroke="#9aaac2" stroke-width="1.3" d="M120.76,-1000C142.72,-1000 169.31,-1000 191.51,-1000"/>
<polygon fill="#9aaac2" stroke="#9aaac2" stroke-width="1.3" points="191.31,-1002.28 197.81,-1000 191.31,-997.73 191.31,-1002.28"/>
</g>
<!-- &#45;16529536 -->
<g id="node21" class="node">
<title>&#45;16529536</title>
<g id="a_node21"><a xlink:href="file://E:/study/use-effect-graph/src/hooks/useDebouncedValue.ts:3:48:3:52" xlink:title="useDebouncedValue.ts:3">
<path fill="#f0f5ff" stroke="#c8d8f3" stroke-width="1.2" d="M259.49,-1178.83C259.49,-1178.83 216.3,-1178.83 216.3,-1178.83 210.3,-1178.83 204.3,-1172.83 204.3,-1166.83 204.3,-1166.83 204.3,-1131.17 204.3,-1131.17 204.3,-1125.17 210.3,-1119.17 216.3,-1119.17 216.3,-1119.17 259.49,-1119.17 259.49,-1119.17 265.49,-1119.17 271.49,-1125.17 271.49,-1131.17 271.49,-1131.17 271.49,-1166.83 271.49,-1166.83 271.49,-1172.83 265.49,-1178.83 259.49,-1178.83"/>
<text xml:space="preserve" text-anchor="start" x="222.14" y="-1156.35" font-family="Segoe UI" font-weight="bold" font-size="12.00" fill="#254b82">delay</text>
<text xml:space="preserve" text-anchor="start" x="222.14" y="-1134.25" font-family="Segoe UI" font-size="10.00" fill="#738199">line 3</text>
</a>
</g>
</g>
<!-- &#45;16529537 -->
<g id="node22" class="node">
<title>&#45;16529537</title>
<g id="a_node22"><a xlink:href="file://E:/study/use-effect-graph/src/hooks/useDebouncedValue.ts:3:38:3:42" xlink:title="useDebouncedValue.ts:3">
<path fill="#f0f5ff" stroke="#c8d8f3" stroke-width="1.2" d="M259.11,-1258.83C259.11,-1258.83 216.68,-1258.83 216.68,-1258.83 210.68,-1258.83 204.68,-1252.83 204.68,-1246.83 204.68,-1246.83 204.68,-1211.17 204.68,-1211.17 204.68,-1205.17 210.68,-1199.17 216.68,-1199.17 216.68,-1199.17 259.11,-1199.17 259.11,-1199.17 265.11,-1199.17 271.11,-1205.17 271.11,-1211.17 271.11,-1211.17 271.11,-1246.83 271.11,-1246.83 271.11,-1252.83 265.11,-1258.83 259.11,-1258.83"/>
<text xml:space="preserve" text-anchor="start" x="222.52" y="-1236.35" font-family="Segoe UI" font-weight="bold" font-size="12.00" fill="#254b82">value</text>
<text xml:space="preserve" text-anchor="start" x="222.52" y="-1214.25" font-family="Segoe UI" font-size="10.00" fill="#738199">line 3</text>
</a>
</g>
</g>
<!-- &#45;16529519 -->
<g id="node23" class="node">
<title>&#45;16529519</title>
<g id="a_node23"><a xlink:href="file://E:/study/use-effect-graph/src/hooks/useDebouncedValue.ts:6:3:14:20" xlink:title="useDebouncedValue.ts:6">
<path fill="#ede9fe" stroke="#c4b5fd" stroke-width="1.2" d="M108.18,-1218.83C108.18,-1218.83 44,-1218.83 44,-1218.83 38,-1218.83 32,-1212.83 32,-1206.83 32,-1206.83 32,-1171.17 32,-1171.17 32,-1165.17 38,-1159.17 44,-1159.17 44,-1159.17 108.18,-1159.17 108.18,-1159.17 114.18,-1159.17 120.18,-1165.17 120.18,-1171.17 120.18,-1171.17 120.18,-1206.83 120.18,-1206.83 120.18,-1212.83 114.18,-1218.83 108.18,-1218.83"/>
<text xml:space="preserve" text-anchor="start" x="49.84" y="-1196.35" font-family="Segoe UI" font-weight="bold" font-size="12.00" fill="#5b36a8">useEffect</text>
<text xml:space="preserve" text-anchor="start" x="49.84" y="-1174.25" font-family="Segoe UI" font-size="10.00" fill="#738199">line 6</text>
</a>
</g>
</g>
<!-- &#45;16529519&#45;&gt;&#45;16529536 -->
<g id="edge23" class="edge">
<title>&#45;16529519&#45;&gt;&#45;16529536</title>
<path fill="none" stroke="#9aaac2" stroke-width="1.3" d="M120.76,-1178.07C144.13,-1172.22 172.76,-1165.05 195.74,-1159.3"/>
<polygon fill="#9aaac2" stroke="#9aaac2" stroke-width="1.3" points="196.27,-1161.51 202.02,-1157.73 195.16,-1157.1 196.27,-1161.51"/>
</g>
<!-- &#45;16529519&#45;&gt;&#45;16529537 -->
<g id="edge22" class="edge">
<title>&#45;16529519&#45;&gt;&#45;16529537</title>
<path fill="none" stroke="#9aaac2" stroke-width="1.3" d="M120.76,-1199.93C144.21,-1205.8 172.96,-1213 195.98,-1218.76"/>
<polygon fill="#9aaac2" stroke="#9aaac2" stroke-width="1.3" points="195.42,-1220.96 202.27,-1220.33 196.52,-1216.55 195.42,-1220.96"/>
</g>
<!-- &#45;16529142 -->
<g id="node24" class="node">
<title>&#45;16529142</title>
<g id="a_node24"><a xlink:href="file://E:/study/use-effect-graph/src/hooks/usePersistentState.ts:3:39:3:41" xlink:title="usePersistentState.ts:3">
<path fill="#f0f5ff" stroke="#c8d8f3" stroke-width="1.2" d="M255.73,-1407.83C255.73,-1407.83 220.05,-1407.83 220.05,-1407.83 214.05,-1407.83 208.05,-1401.83 208.05,-1395.83 208.05,-1395.83 208.05,-1360.17 208.05,-1360.17 208.05,-1354.17 214.05,-1348.17 220.05,-1348.17 220.05,-1348.17 255.73,-1348.17 255.73,-1348.17 261.73,-1348.17 267.73,-1354.17 267.73,-1360.17 267.73,-1360.17 267.73,-1395.83 267.73,-1395.83 267.73,-1401.83 261.73,-1407.83 255.73,-1407.83"/>
<text xml:space="preserve" text-anchor="start" x="225.89" y="-1385.35" font-family="Segoe UI" font-weight="bold" font-size="12.00" fill="#254b82">key</text>
<text xml:space="preserve" text-anchor="start" x="225.89" y="-1363.25" font-family="Segoe UI" font-size="10.00" fill="#738199">line 3</text>
</a>
</g>
</g>
<!-- &#45;16529131 -->
<g id="node25" class="node">
<title>&#45;16529131</title>
<g id="a_node25"><a xlink:href="file://E:/study/use-effect-graph/src/hooks/usePersistentState.ts:4:10:4:14" xlink:title="usePersistentState.ts:4">
<path fill="#f0f5ff" stroke="#c8d8f3" stroke-width="1.2" d="M259.11,-1487.83C259.11,-1487.83 216.68,-1487.83 216.68,-1487.83 210.68,-1487.83 204.68,-1481.83 204.68,-1475.83 204.68,-1475.83 204.68,-1440.17 204.68,-1440.17 204.68,-1434.17 210.68,-1428.17 216.68,-1428.17 216.68,-1428.17 259.11,-1428.17 259.11,-1428.17 265.11,-1428.17 271.11,-1434.17 271.11,-1440.17 271.11,-1440.17 271.11,-1475.83 271.11,-1475.83 271.11,-1481.83 265.11,-1487.83 259.11,-1487.83"/>
<text xml:space="preserve" text-anchor="start" x="222.52" y="-1465.35" font-family="Segoe UI" font-weight="bold" font-size="12.00" fill="#254b82">value</text>
<text xml:space="preserve" text-anchor="start" x="222.52" y="-1443.25" font-family="Segoe UI" font-size="10.00" fill="#738199">line 4</text>
</a>
</g>
</g>
<!-- &#45;16529097 -->
<g id="node26" class="node">
<title>&#45;16529097</title>
<g id="a_node26"><a xlink:href="file://E:/study/use-effect-graph/src/hooks/usePersistentState.ts:9:3:11:18" xlink:title="usePersistentState.ts:9">
<path fill="#ede9fe" stroke="#c4b5fd" stroke-width="1.2" d="M108.18,-1447.83C108.18,-1447.83 44,-1447.83 44,-1447.83 38,-1447.83 32,-1441.83 32,-1435.83 32,-1435.83 32,-1400.17 32,-1400.17 32,-1394.17 38,-1388.17 44,-1388.17 44,-1388.17 108.18,-1388.17 108.18,-1388.17 114.18,-1388.17 120.18,-1394.17 120.18,-1400.17 120.18,-1400.17 120.18,-1435.83 120.18,-1435.83 120.18,-1441.83 114.18,-1447.83 108.18,-1447.83"/>
<text xml:space="preserve" text-anchor="start" x="49.84" y="-1425.35" font-family="Segoe UI" font-weight="bold" font-size="12.00" fill="#5b36a8">useEffect</text>
<text xml:space="preserve" text-anchor="start" x="49.84" y="-1403.25" font-family="Segoe UI" font-size="10.00" fill="#738199">line 9</text>
</a>
</g>
</g>
<!-- &#45;16529097&#45;&gt;&#45;16529142 -->
<g id="edge24" class="edge">
<title>&#45;16529097&#45;&gt;&#45;16529142</title>
<path fill="none" stroke="#9aaac2" stroke-width="1.3" d="M120.76,-1407.07C145.56,-1400.86 176.27,-1393.18 199.88,-1387.27"/>
<polygon fill="#9aaac2" stroke="#9aaac2" stroke-width="1.3" points="200.25,-1389.52 206,-1385.73 199.14,-1385.1 200.25,-1389.52"/>
</g>
<!-- &#45;16529097&#45;&gt;&#45;16529131 -->
<g id="edge25" class="edge">
<title>&#45;16529097&#45;&gt;&#45;16529131</title>
<path fill="none" stroke="#9aaac2" stroke-width="1.3" d="M120.76,-1428.93C144.21,-1434.8 172.96,-1442 195.98,-1447.76"/>
<polygon fill="#9aaac2" stroke="#9aaac2" stroke-width="1.3" points="195.42,-1449.96 202.27,-1449.33 196.52,-1445.55 195.42,-1449.96"/>
</g>
<!-- &#45;16531420 -->
<g id="node27" class="node">
<title>&#45;16531420</title>
<g id="a_node27"><a xlink:href="file://E:/study/use-effect-graph/src/components/Users.tsx:3:10:3:26" xlink:title="Users.tsx:3">
<path fill="#e6f7f2" stroke="#99d6c5" stroke-width="1.2" d="M496.29,-1676.83C496.29,-1676.83 367.61,-1676.83 367.61,-1676.83 361.61,-1676.83 355.61,-1670.83 355.61,-1664.83 355.61,-1664.83 355.61,-1629.17 355.61,-1629.17 355.61,-1623.17 361.61,-1617.17 367.61,-1617.17 367.61,-1617.17 496.29,-1617.17 496.29,-1617.17 502.29,-1617.17 508.29,-1623.17 508.29,-1629.17 508.29,-1629.17 508.29,-1664.83 508.29,-1664.83 508.29,-1670.83 502.29,-1676.83 496.29,-1676.83"/>
<text xml:space="preserve" text-anchor="start" x="373.45" y="-1654.35" font-family="Segoe UI" font-weight="bold" font-size="12.00" fill="#176b57">useDebouncedValue</text>
<text xml:space="preserve" text-anchor="start" x="373.45" y="-1632.25" font-family="Segoe UI" font-size="10.00" fill="#738199">line 3</text>
</a>
</g>
</g>
<!-- &#45;16531363 -->
<g id="node28" class="node">
<title>&#45;16531363</title>
<g id="a_node28"><a xlink:href="file://E:/study/use-effect-graph/src/components/Users.tsx:16:3:16:7" xlink:title="Users.tsx:16">
<path fill="#f0f5ff" stroke="#c8d8f3" stroke-width="1.2" d="M454.66,-1756.83C454.66,-1756.83 409.23,-1756.83 409.23,-1756.83 403.23,-1756.83 397.23,-1750.83 397.23,-1744.83 397.23,-1744.83 397.23,-1709.17 397.23,-1709.17 397.23,-1703.17 403.23,-1697.17 409.23,-1697.17 409.23,-1697.17 454.66,-1697.17 454.66,-1697.17 460.66,-1697.17 466.66,-1703.17 466.66,-1709.17 466.66,-1709.17 466.66,-1744.83 466.66,-1744.83 466.66,-1750.83 460.66,-1756.83 454.66,-1756.83"/>
<text xml:space="preserve" text-anchor="start" x="415.07" y="-1734.35" font-family="Segoe UI" font-weight="bold" font-size="12.00" fill="#254b82">query</text>
<text xml:space="preserve" text-anchor="start" x="415.07" y="-1712.25" font-family="Segoe UI" font-size="10.00" fill="#738199">line 16</text>
</a>
</g>
</g>
<!-- &#45;16531360 -->
<g id="node29" class="node">
<title>&#45;16531360</title>
<g id="a_node29"><a xlink:href="file://E:/study/use-effect-graph/src/components/Users.tsx:17:3:17:8" xlink:title="Users.tsx:17">
<path fill="#f0f5ff" stroke="#c8d8f3" stroke-width="1.2" d="M260.61,-1796.83C260.61,-1796.83 215.18,-1796.83 215.18,-1796.83 209.18,-1796.83 203.18,-1790.83 203.18,-1784.83 203.18,-1784.83 203.18,-1749.17 203.18,-1749.17 203.18,-1743.17 209.18,-1737.17 215.18,-1737.17 215.18,-1737.17 260.61,-1737.17 260.61,-1737.17 266.61,-1737.17 272.61,-1743.17 272.61,-1749.17 272.61,-1749.17 272.61,-1784.83 272.61,-1784.83 272.61,-1790.83 266.61,-1796.83 260.61,-1796.83"/>
<text xml:space="preserve" text-anchor="start" x="221.02" y="-1774.35" font-family="Segoe UI" font-weight="bold" font-size="12.00" fill="#254b82">status</text>
<text xml:space="preserve" text-anchor="start" x="221.02" y="-1752.25" font-family="Segoe UI" font-size="10.00" fill="#738199">line 17</text>
</a>
</g>
</g>
<!-- &#45;16531357 -->
<g id="node30" class="node">
<title>&#45;16531357</title>
<g id="a_node30"><a xlink:href="file://E:/study/use-effect-graph/src/components/Users.tsx:18:3:18:10" xlink:title="Users.tsx:18">
<path fill="#f0f5ff" stroke="#c8d8f3" stroke-width="1.2" d="M269.61,-1636.83C269.61,-1636.83 206.18,-1636.83 206.18,-1636.83 200.18,-1636.83 194.18,-1630.83 194.18,-1624.83 194.18,-1624.83 194.18,-1589.17 194.18,-1589.17 194.18,-1583.17 200.18,-1577.17 206.18,-1577.17 206.18,-1577.17 269.61,-1577.17 269.61,-1577.17 275.61,-1577.17 281.61,-1583.17 281.61,-1589.17 281.61,-1589.17 281.61,-1624.83 281.61,-1624.83 281.61,-1630.83 275.61,-1636.83 269.61,-1636.83"/>
<text xml:space="preserve" text-anchor="start" x="212.02" y="-1614.35" font-family="Segoe UI" font-weight="bold" font-size="12.00" fill="#254b82">pageSize</text>
<text xml:space="preserve" text-anchor="start" x="212.02" y="-1592.25" font-family="Segoe UI" font-size="10.00" fill="#738199">line 18</text>
</a>
</g>
</g>
<!-- &#45;16531345 -->
<g id="node31" class="node">
<title>&#45;16531345</title>
<g id="a_node31"><a xlink:href="file://E:/study/use-effect-graph/src/components/Users.tsx:22:9:22:22" xlink:title="Users.tsx:22">
<path fill="#f0f5ff" stroke="#c8d8f3" stroke-width="1.2" d="M293.61,-1716.83C293.61,-1716.83 182.18,-1716.83 182.18,-1716.83 176.18,-1716.83 170.18,-1710.83 170.18,-1704.83 170.18,-1704.83 170.18,-1669.17 170.18,-1669.17 170.18,-1663.17 176.18,-1657.17 182.18,-1657.17 182.18,-1657.17 293.61,-1657.17 293.61,-1657.17 299.61,-1657.17 305.61,-1663.17 305.61,-1669.17 305.61,-1669.17 305.61,-1704.83 305.61,-1704.83 305.61,-1710.83 299.61,-1716.83 293.61,-1716.83"/>
<text xml:space="preserve" text-anchor="start" x="188.02" y="-1694.35" font-family="Segoe UI" font-weight="bold" font-size="12.00" fill="#254b82">debouncedQuery</text>
<text xml:space="preserve" text-anchor="start" x="188.02" y="-1672.25" font-family="Segoe UI" font-size="10.00" fill="#738199">line 22</text>
</a>
</g>
</g>
<!-- &#45;16531345&#45;&gt;&#45;16531420 -->
<g id="edge15" class="edge">
<title>&#45;16531345&#45;&gt;&#45;16531420</title>
<path fill="none" stroke="#9aaac2" stroke-width="1.3" d="M306.07,-1673.01C319.36,-1670.24 333.46,-1667.3 347.23,-1664.44"/>
<polygon fill="#9aaac2" stroke="#9aaac2" stroke-width="1.3" points="347.46,-1666.71 353.36,-1663.16 346.53,-1662.26 347.46,-1666.71"/>
</g>
<!-- &#45;16531345&#45;&gt;&#45;16531363 -->
<g id="edge16" class="edge">
<title>&#45;16531345&#45;&gt;&#45;16531363</title>
<path fill="none" stroke="#9aaac2" stroke-width="1.3" d="M306.07,-1700.99C333.45,-1706.69 364.28,-1713.12 388.46,-1718.15"/>
<polygon fill="#9aaac2" stroke="#9aaac2" stroke-width="1.3" points="387.97,-1720.37 394.8,-1719.47 388.9,-1715.92 387.97,-1720.37"/>
</g>
<!-- &#45;16531302 -->
<g id="node32" class="node">
<title>&#45;16531302</title>
<g id="a_node32"><a xlink:href="file://E:/study/use-effect-graph/src/components/Users.tsx:28:3:30:40" xlink:title="Users.tsx:28">
<path fill="#ede9fe" stroke="#c4b5fd" stroke-width="1.2" d="M108.18,-1716.83C108.18,-1716.83 44,-1716.83 44,-1716.83 38,-1716.83 32,-1710.83 32,-1704.83 32,-1704.83 32,-1669.17 32,-1669.17 32,-1663.17 38,-1657.17 44,-1657.17 44,-1657.17 108.18,-1657.17 108.18,-1657.17 114.18,-1657.17 120.18,-1663.17 120.18,-1669.17 120.18,-1669.17 120.18,-1704.83 120.18,-1704.83 120.18,-1710.83 114.18,-1716.83 108.18,-1716.83"/>
<text xml:space="preserve" text-anchor="start" x="49.84" y="-1694.35" font-family="Segoe UI" font-weight="bold" font-size="12.00" fill="#5b36a8">useEffect</text>
<text xml:space="preserve" text-anchor="start" x="49.84" y="-1672.25" font-family="Segoe UI" font-size="10.00" fill="#738199">line 28</text>
</a>
</g>
</g>
<!-- &#45;16531302&#45;&gt;&#45;16531360 -->
<g id="edge17" class="edge">
<title>&#45;16531302&#45;&gt;&#45;16531360</title>
<path fill="none" stroke="#9aaac2" stroke-width="1.3" d="M120.76,-1708.86C143.92,-1720.46 172.24,-1734.63 195.12,-1746.09"/>
<polygon fill="#9aaac2" stroke="#9aaac2" stroke-width="1.3" points="194.06,-1748.1 200.89,-1748.98 196.1,-1744.03 194.06,-1748.1"/>
</g>
<!-- &#45;16531302&#45;&gt;&#45;16531357 -->
<g id="edge18" class="edge">
<title>&#45;16531302&#45;&gt;&#45;16531357</title>
<path fill="none" stroke="#9aaac2" stroke-width="1.3" d="M120.76,-1665.14C141.09,-1654.96 165.4,-1642.79 186.51,-1632.22"/>
<polygon fill="#9aaac2" stroke="#9aaac2" stroke-width="1.3" points="187.28,-1634.38 192.07,-1629.44 185.24,-1630.31 187.28,-1634.38"/>
</g>
<!-- &#45;16531302&#45;&gt;&#45;16531345 -->
<g id="edge19" class="edge">
<title>&#45;16531302&#45;&gt;&#45;16531345</title>
<path fill="none" stroke="#9aaac2" stroke-width="1.3" d="M120.76,-1687C133.43,-1687 147.64,-1687 161.66,-1687"/>
<polygon fill="#9aaac2" stroke="#9aaac2" stroke-width="1.3" points="161.41,-1689.28 167.91,-1687 161.41,-1684.73 161.41,-1689.28"/>
</g>
<!-- &#45;16531288 -->
<g id="node33" class="node">
<title>&#45;16531288</title>
<g id="a_node33"><a xlink:href="file://E:/study/use-effect-graph/src/components/Users.tsx:32:3:49:30" xlink:title="Users.tsx:32">
<path fill="#ede9fe" stroke="#c4b5fd" stroke-width="1.2" d="M108.18,-1796.83C108.18,-1796.83 44,-1796.83 44,-1796.83 38,-1796.83 32,-1790.83 32,-1784.83 32,-1784.83 32,-1749.17 32,-1749.17 32,-1743.17 38,-1737.17 44,-1737.17 44,-1737.17 108.18,-1737.17 108.18,-1737.17 114.18,-1737.17 120.18,-1743.17 120.18,-1749.17 120.18,-1749.17 120.18,-1784.83 120.18,-1784.83 120.18,-1790.83 114.18,-1796.83 108.18,-1796.83"/>
<text xml:space="preserve" text-anchor="start" x="49.84" y="-1774.35" font-family="Segoe UI" font-weight="bold" font-size="12.00" fill="#5b36a8">useEffect</text>
<text xml:space="preserve" text-anchor="start" x="49.84" y="-1752.25" font-family="Segoe UI" font-size="10.00" fill="#738199">line 32</text>
</a>
</g>
</g>
<!-- &#45;16531288&#45;&gt;&#45;16531360 -->
<g id="edge20" class="edge">
<title>&#45;16531288&#45;&gt;&#45;16531360</title>
<path fill="none" stroke="#9aaac2" stroke-width="1.3" d="M120.76,-1767C143.62,-1767 171.5,-1767 194.22,-1767"/>
<polygon fill="#9aaac2" stroke="#9aaac2" stroke-width="1.3" points="194.18,-1769.28 200.68,-1767 194.18,-1764.73 194.18,-1769.28"/>
</g>
<!-- &#45;16531288&#45;&gt;&#45;16531345 -->
<g id="edge21" class="edge">
<title>&#45;16531288&#45;&gt;&#45;16531345</title>
<path fill="none" stroke="#9aaac2" stroke-width="1.3" d="M120.76,-1745.14C135.58,-1737.72 152.52,-1729.24 168.79,-1721.09"/>
<polygon fill="#9aaac2" stroke="#9aaac2" stroke-width="1.3" points="169.66,-1723.2 174.45,-1718.26 167.62,-1719.14 169.66,-1723.2"/>
</g>
</g>
</svg>
